<svg width="367" height="323" xmlns="http://www.w3.org/2000/svg" xmlns:xlink="http://www.w3.org/1999/xlink" overflow="hidden"><defs><clipPath id="clip0"><rect x="0" y="0" width="367" height="323"/></clipPath></defs><g clip-path="url(#clip0)"><path d="M176.421 575.145C170.871 573.847 168.997 573.234 165.861 571.757 163.951 570.82 161.104 569.198 159.554 568.117 156.779 566.206 146.327 556.151 146.327 555.43 146.327 555.214 146.003 554.709 145.606 554.313 144.597 553.304 141.101 546.24 140.272 543.5 139.299 540.365 139.155 539.716 138.686 537.193 137.965 533.229 138.326 521.479 139.155 520.939 139.335 520.831 139.479 520.398 139.479 519.93 139.479 518.776 140.957 514.559 142.435 511.604 144.453 507.459 146.976 503.819 149.355 501.513 150.616 500.323 151.949 498.773 152.382 498.089 152.778 497.404 154.544 495.494 156.31 493.908 158.076 492.286 160.455 489.763 161.645 488.321 162.834 486.844 164.492 484.898 165.321 483.96 166.222 482.951 166.87 481.906 166.87 481.402 166.87 480.933 166.294 478.951 165.573 476.969 164.564 474.265 164.167 472.535 163.951 469.796 163.23 461.327 163.086 460.281 162.437 459.633 161.933 459.128 160.888 458.912 157.572 458.732 150.219 458.227 144.777 457.578 135.335 455.957 127.946 454.659 126.432 454.227 124.955 452.857L123.585 451.596 123.765 448.064C123.837 446.153 124.09 443.522 124.27 442.225 124.486 440.927 124.847 438.657 125.063 437.179 125.279 435.701 125.603 433.359 125.748 431.989 125.928 429.899 126.108 429.43 126.865 428.926 128.631 427.808 130.541 425.862 131.154 424.601 131.73 423.483 133.244 418.834 135.911 410.292 136.272 409.067 136.596 407.77 136.596 407.373 136.596 407.013 136.74 406.544 136.884 406.364 137.064 406.148 137.389 405.102 137.641 404.021 138.867 398.975 143.3 386.613 145.534 382.036 148.742 375.513 149.391 374.612 154.256 369.746 158.113 365.926 158.509 365.421 159.086 363.439 159.446 362.286 160.167 359.871 160.743 358.069 161.284 356.303 162.113 353.528 162.546 351.942 162.978 350.356 163.627 348.085 163.987 346.896 164.348 345.707 164.996 343.436 165.429 341.85 166.51 338.03 167.267 335.399 168.6 330.858 169.213 328.767 170.078 325.848 170.511 324.37 170.907 322.893 171.592 320.694 171.952 319.541 172.313 318.351 172.637 317.162 172.637 316.874 172.637 316.585 173.07 315.144 173.61 313.666L174.583 310.927 177.286 309.702C181.287 307.9 182.044 307.539 183.449 307.035 184.134 306.782 184.855 306.458 185.071 306.278 185.251 306.133 185.612 305.989 185.9 305.989 186.153 305.989 187.234 305.593 188.243 305.088 189.288 304.62 192.46 303.322 195.343 302.169 198.226 301.052 200.713 300.007 200.929 299.826 201.11 299.646 201.506 299.502 201.83 299.502 202.119 299.466 203.02 299.178 203.813 298.781 204.606 298.385 205.362 298.096 205.507 298.06 205.651 298.06 206.768 297.592 208.029 297.015 209.291 296.438 211.453 295.537 212.823 295.033 214.229 294.492 215.814 293.843 216.355 293.555 216.932 293.267 217.544 293.014 217.725 293.014 218.013 293.014 225.798 289.843 228.681 288.545 229.294 288.293 230.988 287.608 232.465 287.032 233.943 286.491 235.673 285.734 236.25 285.41 236.862 285.121 237.98 284.617 238.773 284.365 239.565 284.112 240.611 283.716 241.115 283.464 241.62 283.211 243.386 282.49 245.044 281.842 246.702 281.229 248.323 280.58 248.648 280.4 248.972 280.22 250.45 279.607 251.928 279.031 253.405 278.454 256.505 277.192 258.775 276.255 261.767 274.994 263.713 274.453 265.803 274.201 271.065 273.624 275.499 273.156 278.778 272.831 280.58 272.687 284.869 272.219 288.329 271.786 296.33 270.849 299.61 270.849 307.431 271.786 310.891 272.219 315.108 272.687 316.802 272.867 318.496 273.012 321.667 273.336 323.83 273.552 326.028 273.769 328.839 274.021 330.137 274.129 331.434 274.237 333.164 274.634 333.993 275.03 334.858 275.39 335.759 275.715 336.012 275.715 336.264 275.715 336.768 275.931 337.165 276.183 337.561 276.436 339.111 277.12 340.589 277.661 342.066 278.238 343.941 278.995 344.77 279.355 345.562 279.751 346.5 280.04 346.824 280.04 347.148 280.04 347.509 280.184 347.617 280.4 347.725 280.58 349.058 281.157 350.608 281.625 352.951 282.382 357.348 284.112 361.673 285.95 362.286 286.203 363.727 286.779 364.917 287.248 366.106 287.68 367.98 288.401 369.061 288.834 370.143 289.302 372.269 290.095 373.747 290.636 375.224 291.212 376.702 291.789 377.026 291.933 377.351 292.113 378.973 292.762 380.631 293.411 382.288 294.024 384.163 294.744 384.739 294.997 388.091 296.438 394.975 299.142 395.912 299.358 396.525 299.502 397.318 299.826 397.714 300.079 398.11 300.367 398.651 300.583 398.975 300.583 399.264 300.583 399.913 300.799 400.417 301.052 400.922 301.304 402.688 302.061 404.382 302.71 406.076 303.358 408.923 304.548 410.725 305.305 412.527 306.061 414.185 306.71 414.437 306.71 414.653 306.71 415.446 307.035 416.167 307.431 416.924 307.827 417.681 308.152 417.897 308.152 418.69 308.152 424.384 310.675 424.637 311.107 424.889 311.54 426.655 318.784 427.484 322.748 427.7 323.758 427.989 324.947 428.133 325.452 428.313 325.956 428.637 327.254 428.854 328.335 429.106 329.416 429.43 330.714 429.61 331.218 429.755 331.723 430.079 333.092 430.331 334.282 430.548 335.471 430.908 337.021 431.052 337.706 431.232 338.39 431.881 341.165 432.53 343.833 433.683 348.842 434.043 350.356 434.656 352.843 434.872 353.636 435.197 354.933 435.377 355.726 437.359 363.619 437.503 363.98 439.342 365.313 440.243 365.962 441.108 366.502 441.288 366.502 442.261 366.574 451.235 376.594 451.235 377.603 451.235 377.711 451.523 378.216 451.92 378.72 452.965 380.27 454.479 383.117 454.479 383.586 454.479 383.838 454.803 384.667 455.2 385.46 455.596 386.253 455.92 387.046 455.92 387.262 455.92 387.478 456.209 388.199 456.605 388.884 456.966 389.569 457.614 391.371 458.047 392.848 460.029 399.624 461.11 403.3 461.723 405.283 462.083 406.472 462.696 408.671 463.129 410.148 463.561 411.626 464.066 413.356 464.246 413.933 464.787 415.843 466.769 421.753 467.057 422.366 468.607 425.646 469.184 426.547 470.337 427.556 471.058 428.169 471.959 428.89 472.319 429.106 472.788 429.358 473.076 430.151 473.292 431.629 473.473 432.782 473.761 434.8 473.941 436.098 475.239 444.676 475.599 451.019 474.95 452.316 474.41 453.326 473.004 454.118 470.878 454.551 460.462 456.713 451.271 458.047 441.684 458.768 439.522 458.948 437.395 459.164 436.999 459.272 436.602 459.38 435.521 459.597 434.62 459.705 432.53 459.957 432.277 460.534 431.953 465.111 431.557 471.526 431.16 473.797 429.863 477.545 429.142 479.636 428.529 481.582 428.529 481.87 428.529 482.158 429.791 483.708 431.34 485.294 432.854 486.88 434.656 488.862 435.341 489.727 435.99 490.556 438.296 492.971 440.495 495.133 442.657 497.26 444.676 499.386 444.928 499.891 445.18 500.395 446.081 501.476 446.91 502.233 447.739 503.026 448.928 504.504 449.577 505.477 452.352 509.766 452.857 510.559 453.289 511.388 453.542 511.856 453.758 512.397 453.758 512.577 453.758 512.757 454.082 513.622 454.479 514.487 455.272 516.217 456.173 519.245 456.713 522.056 457.254 524.687 457.47 535.175 457.038 536.653 456.858 537.337 456.497 538.887 456.281 540.077 455.668 543.212 454.479 546.636 453.289 548.907 451.74 551.79 448.676 556.475 448.316 556.475 448.172 556.475 447.955 556.764 447.811 557.16 447.595 557.917 443.414 562.206 440.098 565.089 437.215 567.612 433.791 569.847 429.971 571.721 428.385 572.514 428.025 572.514 412.022 572.622L395.66 572.73 392.524 571.108C390.758 570.243 388.307 568.837 387.046 567.972 384.739 566.387 374.828 556.836 374.828 556.187 374.828 556.007 372.701 553.7 370.107 551.069L365.421 546.276 363.042 546.528C360.664 546.78 359.943 546.924 355.185 548.006 353.816 548.33 351.87 548.762 350.861 548.943 349.887 549.123 348.266 549.447 347.256 549.664 346.283 549.844 344.986 550.096 344.373 550.204 343.796 550.312 341.994 550.673 340.409 551.069 338.823 551.43 336.552 551.898 335.363 552.15 334.173 552.367 332.552 552.727 331.759 552.871 330.966 553.051 329.524 553.376 328.515 553.556 327.542 553.772 325.488 554.205 324.01 554.529 322.532 554.853 320.586 555.286 319.685 555.466 318.784 555.646 317.342 555.935 316.441 556.115 314.459 556.511 311.828 557.052 309.377 557.52 308.368 557.701 306.494 558.097 305.232 558.385 303.971 558.674 302.025 559.142 300.908 559.359 298.853 559.827 296.114 559.683 292.834 558.998 291.861 558.818 290.131 558.458 289.05 558.277 287.969 558.061 286.311 557.737 285.374 557.557 284.401 557.34 282.887 557.052 281.95 556.872 280.977 556.692 279.571 556.367 278.778 556.115 277.985 555.899 276.436 555.574 275.354 555.394 274.273 555.214 272.579 554.889 271.57 554.673 269.624 554.241 267.389 553.808 264.65 553.268 263.677 553.087 262.271 552.763 261.479 552.511 260.686 552.294 259.136 551.97 258.055 551.754 256.036 551.393 254.27 551.033 251.027 550.348 250.053 550.168 248.432 549.844 247.422 549.664 246.449 549.483 244.972 549.159 244.179 548.943 242.737 548.546 240.25 548.006 237.151 547.465 236.25 547.321 234.52 546.924 233.294 546.564 231.997 546.204 230.844 546.095 230.519 546.276 229.186 547.032 223.059 553.051 222.554 554.06 222.013 555.25 211.634 565.486 208.678 567.756 207.777 568.477 205.074 570.027 202.623 571.216 198.623 573.198 196.749 573.847 190.73 575.217 188.82 575.649 178.368 575.613 176.421 575.145ZM300.331 541.158C301.772 540.869 303.971 540.473 305.268 540.257 307.575 539.896 308.873 539.644 312.837 538.815 313.918 538.599 315.793 538.274 316.982 538.094 318.171 537.914 319.973 537.59 320.946 537.373 321.956 537.157 323.577 536.833 324.551 536.617 325.56 536.436 327.109 536.112 328.083 535.932 331.939 535.139 333.309 534.851 335.183 534.49 336.264 534.31 337.994 533.95 338.967 533.769 342.535 533.013 344.409 532.652 346.536 532.328 347.725 532.148 349.347 531.823 350.14 531.607 350.933 531.355 352.482 531.03 353.564 530.85 355.618 530.562 357.672 530.165 361.312 529.444 362.502 529.228 364.124 528.904 364.917 528.724 365.71 528.579 366.791 528.291 367.295 528.075 368.881 527.426 373.422 524.363 374.936 522.885 375.729 522.128 377.927 520.758 379.838 519.857 381.748 518.92 383.946 517.839 384.739 517.443 386.397 516.578 392.02 511.784 395.155 508.541 396.308 507.315 397.858 506.054 398.615 505.657 399.336 505.297 400.85 504.144 401.967 503.134L403.949 501.332 409.608 484.321C412.743 474.95 415.518 466.408 415.771 465.363 416.383 462.985 416.419 461.11 415.843 460.714 415.59 460.57 412.707 460.318 409.427 460.173 388.271 459.2 382.613 458.84 376.27 458.083 368.809 457.182 367.331 457.002 364.917 456.677 363.547 456.461 361.276 456.137 359.871 455.957 358.501 455.776 356.375 455.416 355.185 455.236 353.996 455.019 352.05 454.659 350.861 454.479 348.734 454.118 346.283 453.686 343.112 453.073 342.211 452.893 340.517 452.497 339.327 452.208 338.138 451.92 336.192 451.487 335.002 451.235 333.813 450.983 332.444 450.658 331.939 450.514 331.434 450.334 330.137 450.01 329.056 449.757 327.974 449.541 326.677 449.217 326.172 449.037 324.875 448.64 317.775 446.91 315.612 446.514 314.567 446.297 312.765 445.973 311.576 445.757 308.656 445.216 290.203 445.216 287.428 445.721 286.239 445.973 284.545 446.334 283.644 446.55 282.743 446.766 281.229 447.09 280.22 447.271 279.247 447.451 275.174 448.424 271.21 449.433 262.343 451.74 261.551 451.92 259.316 452.352 258.343 452.533 256.793 452.821 255.892 453.037 252.684 453.722 250.27 454.154 248.143 454.479 246.954 454.695 245.08 455.019 243.999 455.236 242.124 455.596 239.998 455.92 234.628 456.677 220.428 458.66 207.993 459.561 187.774 460.101 183.125 460.209 179.881 460.426 179.593 460.678 179.341 460.894 179.124 461.435 179.124 461.903 179.124 463.165 181.179 470.878 182.008 472.68 182.404 473.545 182.729 474.518 182.729 474.806 182.729 475.13 183.053 476.067 183.413 476.896 183.81 477.761 184.278 479.167 184.531 480.068 184.747 480.969 185.251 482.519 185.612 483.492 185.936 484.501 186.441 486.015 186.693 486.916 186.945 487.817 187.45 489.223 187.81 490.051 188.171 490.88 188.495 491.817 188.495 492.106 188.495 492.43 188.82 493.367 189.18 494.196 189.576 495.061 190.153 496.683 190.477 497.836 190.982 499.566 191.415 500.179 192.784 501.26 194.983 503.062 198.659 506.919 201.686 510.739 204.461 514.199 205.651 515.28 209.039 517.551 211.417 519.137 216.643 522.957 216.968 523.317 217.076 523.462 218.337 524.327 219.779 525.264 222.23 526.922 222.987 527.21 227.059 528.003 227.96 528.183 229.51 528.507 230.483 528.724 231.492 528.904 233.186 529.264 234.267 529.444 236.358 529.841 238.34 530.237 241.295 530.886 242.305 531.066 243.926 531.391 244.9 531.607 245.909 531.787 247.531 532.111 248.504 532.328 249.513 532.508 251.207 532.868 252.288 533.049 254.378 533.445 256.361 533.841 259.316 534.49 260.325 534.67 261.947 534.995 262.92 535.211 263.929 535.391 265.551 535.716 266.524 535.932 267.533 536.148 269.299 536.472 270.489 536.653 272.615 536.977 275.03 537.446 278.238 538.094 279.139 538.274 281.229 538.671 282.923 538.959 286.059 539.464 287.753 539.788 293.735 540.942 295.609 541.338 297.303 541.626 297.448 541.662 297.592 541.698 298.889 541.446 300.331 541.158ZM218.409 448.784C224.428 448.172 233.042 446.946 238.412 445.865 239.421 445.649 240.791 445.396 241.476 445.288 249.585 443.883 260.253 440.062 265.515 436.711 267.461 435.485 271.714 431.016 272.615 429.322 273.516 427.592 274.057 424.024 274.021 419.879 273.949 409.572 271.282 398.471 267.461 392.921 266.741 391.875 265.984 390.722 265.803 390.398 265.299 389.569 263.713 387.298 262.091 385.064 260.217 382.433 252.54 375.152 249.693 373.278 247.206 371.584 241.584 368.629 240.034 368.16 239.529 368.016 238.448 367.584 237.619 367.223 236.178 366.574 233.511 365.782 230.483 365.097 229.69 364.917 228.393 364.592 227.6 364.376 224.392 363.475 220.247 363.187 209.399 363.187 197.83 363.187 191.27 363.655 186.873 364.772 184.278 365.457 182.945 365.782 180.386 366.394 179.016 366.719 177.467 367.187 176.962 367.439 176.457 367.692 174.727 368.413 173.142 369.025 168.961 370.575 165.429 373.098 161.464 377.279 156.815 382.18 156.527 382.541 154.941 385.82 150.364 395.407 148.381 405.715 148.381 420.06 148.381 427.808 148.67 429.971 150.111 434.224 150.976 436.855 151.409 437.503 153.319 439.414 157.464 443.486 160.852 445.288 167.627 446.874 173.61 448.316 176.025 448.712 178.8 448.748 180.062 448.748 181.431 448.892 181.828 449.073 182.801 449.505 213.58 449.253 218.409 448.784ZM419.879 448.748C430.187 447.631 434.188 446.658 439.486 443.991 442.333 442.585 443.522 441.72 445.396 439.774 448.532 436.458 449.001 435.449 450.37 428.89 451.055 425.646 450.55 408.779 449.613 404.201 449.505 403.625 449.217 402.147 449.037 400.958 447.775 393.75 445.829 388.451 442.297 382.577 439.594 378.108 430.259 370.287 425.898 368.845 424.853 368.521 423.88 368.124 423.664 367.98 423.051 367.548 418.942 366.358 413.752 365.133 407.193 363.583 402.219 363.187 389.605 363.187 378.756 363.151 374.828 363.439 371.404 364.376 370.611 364.592 369.314 364.917 368.521 365.097 365.313 365.818 362.646 366.611 360.592 367.512 355.834 369.53 351.473 371.764 349.599 373.17 348.518 373.999 347.22 374.936 346.716 375.26 345.238 376.233 339.111 382.324 337.742 384.199 337.021 385.172 335.579 387.046 334.534 388.415 333.525 389.749 332.335 391.551 331.903 392.38 331.506 393.209 330.894 394.254 330.497 394.723 329.885 395.552 327.398 402.58 326.605 405.823 325.307 411.193 324.623 419.987 325.235 424.204 325.848 428.493 326.713 430.331 329.524 433.215 330.93 434.692 332.768 436.314 333.561 436.819 338.426 439.918 348.626 443.558 356.807 445.144 367.223 447.162 374.071 448.136 381.387 448.64 383.514 448.784 385.352 449.037 385.496 449.181 385.893 449.577 415.807 449.217 419.879 448.748ZM305.953 418.942C307.683 418.041 311.035 414.87 311.035 414.149 311.035 413.933 311.684 412.419 312.477 410.725 313.27 409.067 313.918 407.589 313.918 407.445 313.918 407.121 320.442 393.713 322.136 390.506 324.551 385.965 328.335 379.874 328.695 379.874 328.839 379.874 329.416 379.189 329.993 378.36 331.47 376.125 335.111 372.449 336.913 371.404 337.742 370.899 338.426 370.323 338.426 370.143 338.426 369.818 345.346 365.097 345.851 365.097 345.995 365.097 346.608 364.7 347.22 364.268 350.14 362.033 360.159 358.177 365.818 357.096 373.999 355.51 377.387 355.258 389.605 355.258 400.453 355.258 403.084 355.402 411.049 356.447 416.527 357.168 418.474 357.276 418.87 356.879 419.195 356.555 416.203 343.436 413.392 332.84 413.032 331.47 412.527 329.344 412.275 328.155 412.022 326.965 411.518 325.127 411.157 324.046 410.797 322.965 410.509 321.703 410.509 321.235 410.509 319.685 409.536 318.351 407.914 317.739 407.049 317.378 405.066 316.585 403.481 315.901 401.895 315.252 399.624 314.351 398.435 313.882 397.245 313.45 395.299 312.621 394.11 312.116 392.921 311.576 390.83 310.711 389.425 310.17 388.055 309.629 386.073 308.801 385.1 308.296 384.09 307.827 383.153 307.431 383.009 307.431 382.829 307.431 382.036 307.143 381.207 306.782 380.378 306.386 378.72 305.737 377.531 305.305 376.342 304.836 374.9 304.259 374.287 303.971 373.278 303.539 367.259 301.016 360.772 298.349 359.294 297.736 357.564 297.051 356.988 296.763 356.375 296.51 354.609 295.79 353.023 295.177 351.437 294.564 349.491 293.735 348.698 293.375 347.905 292.978 345.058 291.789 342.391 290.708 339.724 289.663 336.949 288.509 336.264 288.221 330.93 285.806 327.254 284.581 324.551 284.329 322.965 284.184 320.226 283.86 318.424 283.644 316.658 283.428 313.954 283.103 312.477 282.923 310.999 282.743 308.404 282.418 306.71 282.166 302.854 281.625 293.447 281.589 289.41 282.166 283.464 282.995 275.823 283.86 270.669 284.293 268.47 284.509 267.101 284.833 265.803 285.518 264.83 286.023 262.235 287.104 260.037 287.969 257.874 288.798 255.099 289.915 253.91 290.492 252.721 291.032 249.981 292.15 247.783 293.014 245.62 293.843 242.845 294.961 241.656 295.537 240.467 296.078 238.268 296.979 236.79 297.556 235.313 298.096 233.763 298.781 233.366 299.033 232.97 299.286 232.393 299.502 232.105 299.502 231.781 299.502 230.735 299.898 229.726 300.367 228.753 300.835 227.167 301.52 226.23 301.845 225.293 302.205 224.428 302.637 224.32 302.782 224.212 302.962 223.852 303.106 223.527 303.106 223.203 303.142 222.266 303.43 221.473 303.827 220.68 304.223 219.887 304.512 219.707 304.548 219.527 304.548 218.409 305.016 217.184 305.593 215.995 306.17 213.868 307.071 212.463 307.575 211.093 308.116 209.471 308.764 208.931 309.053 208.354 309.341 207.741 309.593 207.525 309.593 207.309 309.593 206.3 309.99 205.29 310.458 204.281 310.927 201.902 311.936 200.028 312.657 198.154 313.378 196.46 314.099 196.244 314.243 196.064 314.423 194.118 315.216 191.919 316.045 185.468 318.568 185.684 318.351 184.531 323.649 184.278 324.731 183.81 326.677 183.449 327.974 183.089 329.272 182.404 331.939 181.972 333.921 181.539 335.903 181.071 337.922 180.927 338.426 180.746 338.931 180.458 340.048 180.278 340.949 179.737 343.292 179.629 343.724 177.827 350.644 176.385 356.303 176.169 358.249 176.89 358.249 177.467 358.213 181.575 357.492 183.089 357.168 184.639 356.807 186.657 356.555 194.262 355.654 196.136 355.438 202.948 355.258 209.399 355.258 220.464 355.258 226.23 355.582 229.943 356.411 230.844 356.627 232.393 356.915 233.366 357.132 234.376 357.312 235.601 357.636 236.106 357.816 236.61 358.033 238.16 358.465 239.529 358.79 240.899 359.15 242.196 359.546 242.413 359.727 242.629 359.907 243.494 360.267 244.323 360.592 248.323 361.997 259.46 368.485 260.686 370.107 260.938 370.431 261.551 370.971 262.055 371.296 263.208 372.017 269.227 377.927 269.227 378.324 269.227 378.504 269.588 379.009 270.056 379.513 272.543 382.252 281.301 397.822 282.382 401.498 282.527 402.003 283.536 404.093 284.581 406.148 285.662 408.202 286.527 410.004 286.527 410.184 286.527 411.121 289.158 415.879 290.203 416.852 293.051 419.483 294.096 419.807 299.79 419.843 303.863 419.879 304.331 419.807 305.953 418.942Z" fill="#FFFFFF" transform="matrix(1 0 0 -1.00049 -113.434 584.062)"/><path d="M210.012 428.061C201.074 420.852 190.55 412.419 186.693 409.283 182.837 406.184 175.773 400.453 171.015 396.633 161.572 388.992 159.915 387.55 160.095 387.118 160.167 386.938 161.14 385.82 162.293 384.595L164.348 382.361 165.897 383.55C167.231 384.595 191.126 403.841 220.608 427.556L230.916 435.846 229.078 438.477C228.068 439.954 227.023 441.144 226.771 441.144 226.519 441.144 218.986 435.269 210.012 428.061Z" fill="#FFFFFF" transform="matrix(1 0 0 -1.00049 -113.434 584.062)"/><path d="M206.696 439.125C205.903 438.441 204.75 437.576 204.101 437.251 203.488 436.927 200.821 434.945 198.154 432.854 195.523 430.764 191.018 427.196 188.135 424.925 185.251 422.691 181.864 419.987 180.566 418.978 179.269 417.969 174.836 414.473 170.655 411.229 166.51 407.95 162.69 404.886 162.185 404.382 161.681 403.877 160.275 402.688 159.05 401.751 157.788 400.778 156.779 399.804 156.779 399.588 156.815 399.336 157.608 398.147 158.617 396.885L160.419 394.615 164.276 397.606C170.439 402.363 190.874 418.366 199.199 424.997 203.416 428.313 207.02 431.052 207.201 431.052 207.417 431.052 207.597 431.196 207.597 431.376 207.597 431.557 208.714 432.566 210.084 433.611L212.607 435.521 211.273 437.323C209.399 439.918 208.931 440.423 208.498 440.423 208.318 440.387 207.489 439.81 206.696 439.125Z" fill="#FFFFFF" transform="matrix(1 0 0 -1.00049 -113.434 584.062)"/><path d="M188.856 437.576C188.351 437.251 186.657 435.99 185.071 434.728 183.485 433.467 179.881 430.62 177.034 428.421 174.187 426.187 170.979 423.628 169.898 422.727 168.817 421.79 166.474 419.915 164.708 418.582 162.942 417.212 161.536 415.915 161.572 415.735 161.608 415.518 162.473 414.617 163.483 413.68L165.321 411.95 172.493 417.573C176.421 420.672 182.801 425.61 186.621 428.601 190.405 431.557 193.649 434.188 193.793 434.404 193.901 434.584 193.613 435.089 193.144 435.449 192.676 435.846 191.955 436.422 191.559 436.747 189.829 438.188 189.793 438.188 188.856 437.576Z" fill="#FFFFFF" transform="matrix(1 0 0 -1.00049 -113.434 584.062)"/><path d="M396.092 443.378C395.263 442.838 390.181 438.765 357.889 412.851 351.257 407.517 344.986 402.435 344.013 401.534 343.004 400.633 341.418 399.336 340.481 398.723 339.544 398.074 338.787 397.318 338.787 397.029 338.787 396.705 339.688 395.191 340.769 393.605L342.715 390.722 344.445 392.092C345.382 392.848 348.446 395.335 351.221 397.57 354.032 399.84 366.178 409.644 378.252 419.375 390.362 429.106 400.453 437.323 400.705 437.648 401.138 438.152 400.958 438.657 399.696 441.108 398.074 444.207 397.678 444.459 396.092 443.378Z" fill="#FFFFFF" transform="matrix(1 0 0 -1.00049 -113.434 584.062)"/><path d="M378.72 440.675C377.567 439.846 376.017 438.729 375.296 438.224 374.54 437.684 368.737 433.179 362.394 428.205 356.05 423.195 347.869 416.78 344.193 413.969 340.517 411.121 337.309 408.526 337.021 408.202 336.588 407.697 336.66 407.445 337.489 406.256 338.03 405.535 338.823 404.382 339.255 403.769 339.688 403.12 340.156 402.616 340.3 402.688 340.661 402.796 380.811 434.332 382.577 435.846L384.018 437.107 383.406 438.152C383.045 438.693 382.397 439.846 381.964 440.711 381.532 441.54 381.099 442.225 380.991 442.225 380.883 442.225 379.838 441.504 378.72 440.675Z" fill="#FFFFFF" transform="matrix(1 0 0 -1.00049 -113.434 584.062)"/><path d="M357.06 435.882C353.888 433.683 336.48 419.951 335.579 419.014L334.714 418.113 336.624 415.59C337.706 414.149 338.715 413.176 338.931 413.284 339.724 413.752 341.49 415.014 341.67 415.23 341.778 415.374 346.572 419.159 352.302 423.664 358.069 428.169 362.826 431.917 362.862 431.989 363.042 432.097 359.33 436.963 359.006 437.071 358.898 437.107 357.997 436.566 357.06 435.882Z" fill="#FFFFFF" transform="matrix(1 0 0 -1.00049 -113.434 584.062)"/><path d="M273.012 355.366C272.904 355.185 272.327 355.005 271.786 355.005 269.444 355.005 265.587 352.014 263.641 348.626 262.38 346.5 262.38 343.508 263.677 341.129 265.407 337.814 269.119 334.822 272.651 333.849 273.444 333.633 275.246 333.128 276.616 332.732 279.535 331.903 281.481 331.434 284.545 330.858 285.734 330.641 287.212 330.317 287.825 330.101 288.437 329.921 289.519 329.776 290.239 329.776 291.969 329.776 293.267 329.164 293.519 328.191 293.879 326.893 293.735 313.053 293.375 312.477 293.087 312.008 290.708 311.9 276.904 311.756L260.758 311.576 260.65 308.08 260.541 304.548 297.7 304.548 334.822 304.548 334.822 308.152 334.822 311.756 318.46 311.756C304.043 311.756 302.025 311.828 301.52 312.333 301.016 312.801 300.944 314.063 300.944 320.406 300.944 329.488 300.908 329.452 304.764 329.849 306.133 329.957 308.08 330.245 309.053 330.461 310.062 330.677 311.684 331.002 312.657 331.182 320.045 332.516 326.821 335.291 329.632 338.21 331.146 339.76 332.768 343.256 332.732 344.914 332.696 346.716 331.146 350.068 329.632 351.581 327.866 353.383 325.019 355.005 323.686 355.005 323.145 355.005 322.532 355.185 322.352 355.366 322.1 355.618 318.604 355.69 311.72 355.546 298.925 355.294 295.646 355.294 283.211 355.546 276.472 355.69 273.192 355.654 273.012 355.366Z" fill="#FFFFFF" transform="matrix(1 0 0 -1.00049 -113.434 584.062)"/></g></svg>