<?xml version="1.0" standalone="no"?>
<!DOCTYPE svg PUBLIC "-//W3C//DTD SVG 20010904//EN"
 "http://www.w3.org/TR/2001/REC-SVG-20010904/DTD/svg10.dtd">
<svg version="1.0" xmlns="http://www.w3.org/2000/svg"
 width="1668.000000pt" height="2388.000000pt" viewBox="0 0 1668.000000 2388.000000"
 preserveAspectRatio="xMidYMid meet">

<g transform="translate(0.000000,2388.000000) scale(0.100000,-0.100000)"
fill="#000000" stroke="none">
<path d="M4895 15958 c-154 -36 -206 -53 -293 -94 -53 -26 -132 -71 -175 -101
-77 -53 -367 -332 -367 -352 0 -6 -9 -20 -20 -31 -28 -28 -125 -224 -148 -300
-27 -87 -31 -105 -44 -175 -20 -110 -10 -436 13 -451 5 -3 9 -15 9 -28 0 -32
41 -149 82 -231 56 -115 126 -216 192 -280 35 -33 72 -76 84 -95 11 -19 60
-72 109 -116 49 -45 115 -115 148 -155 33 -41 79 -95 102 -121 25 -28 43 -57
43 -71 0 -13 -16 -68 -36 -123 -28 -75 -39 -123 -45 -199 -20 -235 -24 -264
-42 -282 -14 -14 -43 -20 -135 -25 -204 -14 -355 -32 -617 -77 -205 -36 -247
-48 -288 -86 l-38 -35 5 -98 c2 -53 9 -126 14 -162 6 -36 16 -99 22 -140 6
-41 15 -106 19 -144 5 -58 10 -71 31 -85 49 -31 102 -85 119 -120 16 -31 58
-160 132 -397 10 -34 19 -70 19 -81 0 -10 4 -23 8 -28 5 -6 14 -35 21 -65 34
-140 157 -483 219 -610 89 -181 107 -206 242 -341 107 -106 118 -120 134 -175
10 -32 30 -99 46 -149 15 -49 38 -126 50 -170 12 -44 30 -107 40 -140 10 -33
28 -96 40 -140 30 -106 51 -179 88 -305 17 -58 41 -139 53 -180 11 -41 30
-102 40 -134 10 -33 19 -66 19 -74 0 -8 12 -48 27 -89 l27 -76 75 -34 c111
-50 132 -60 171 -74 19 -7 39 -16 45 -21 5 -4 15 -8 23 -8 7 0 37 -11 65 -25
29 -13 117 -49 197 -81 80 -31 149 -60 155 -65 5 -5 16 -9 25 -9 8 -1 33 -9
55 -20 22 -11 43 -19 47 -20 4 0 35 -13 70 -29 35 -16 95 -41 133 -55 39 -15
83 -33 98 -41 16 -8 33 -15 38 -15 8 0 224 -88 304 -124 17 -7 64 -26 105 -42
41 -15 89 -36 105 -45 17 -8 48 -22 70 -29 22 -7 51 -18 65 -25 14 -7 63 -27
109 -45 46 -17 91 -35 100 -40 9 -5 50 -22 91 -38 41 -16 127 -51 190 -77 83
-35 137 -50 195 -57 146 -16 269 -29 360 -38 50 -4 169 -17 265 -29 222 -26
313 -26 530 0 96 12 213 25 260 30 47 4 135 13 195 19 61 6 139 13 175 16 36
3 84 14 107 25 24 10 49 19 56 19 7 0 21 6 32 13 11 7 54 26 95 41 41 16 93
37 116 47 22 11 48 19 57 19 9 0 19 4 22 10 3 5 40 21 83 34 65 21 187 69 307
120 17 7 57 23 90 36 33 12 85 32 115 44 30 13 89 35 130 50 41 16 82 32 91
36 9 5 54 23 100 41 46 17 98 37 114 44 93 40 284 115 310 121 17 4 39 13 50
20 11 8 26 14 35 14 8 0 26 6 40 13 14 7 63 28 110 46 47 18 126 51 176 72 50
21 96 39 103 39 6 0 28 9 48 20 21 11 42 20 48 20 22 0 180 70 187 82 7 12 56
213 79 323 6 28 14 61 18 75 5 14 14 50 20 80 7 30 16 66 21 80 4 14 13 52 20
85 6 33 16 76 20 95 5 19 23 96 41 170 32 139 42 181 59 250 6 22 15 58 20 80
55 219 59 229 110 266 25 18 49 33 54 33 27 2 276 280 276 308 0 3 8 17 19 31
29 43 71 122 71 135 0 7 9 30 20 52 11 22 20 44 20 50 0 6 8 26 19 45 10 19
28 69 40 110 55 188 85 290 102 345 10 33 27 94 39 135 12 41 26 89 31 105 15
53 70 217 78 234 43 91 59 116 91 144 20 17 45 37 55 43 13 7 21 29 27 70 5
32 13 88 18 124 36 238 46 414 28 450 -15 28 -54 50 -113 62 -289 60 -544 97
-810 117 -60 5 -119 11 -130 14 -11 3 -41 9 -66 12 -58 7 -65 23 -74 150 -11
178 -22 241 -58 345 -20 58 -37 112 -37 120 0 8 35 51 78 95 42 44 92 99 111
123 18 23 82 90 143 150 60 59 116 118 123 132 7 14 32 44 55 65 23 22 56 63
74 90 77 119 91 141 103 164 7 13 13 28 13 33 0 5 9 29 20 53 22 48 47 132 62
210 15 73 21 364 9 405 -5 19 -15 62 -21 95 -17 87 -50 182 -83 245 -43 80
-128 210 -138 210 -4 0 -10 8 -14 19 -6 21 -122 140 -214 220 -80 70 -175 132
-281 184 -44 22 -54 22 -498 25 l-454 3 -87 -45 c-49 -24 -117 -63 -152 -87
-64 -44 -339 -309 -339 -327 0 -5 -59 -69 -131 -142 l-130 -133 -66 7 c-66 7
-86 11 -218 41 -38 9 -92 21 -120 26 -27 5 -72 14 -100 20 -27 5 -63 12 -80
15 -16 3 -66 13 -110 24 -44 10 -107 23 -140 30 -33 6 -78 16 -100 20 -22 5
-62 14 -90 19 -27 6 -84 18 -125 27 -41 9 -95 21 -120 26 -25 5 -65 13 -90 18
-55 11 -128 26 -196 39 -28 5 -80 16 -115 24 -35 8 -89 21 -120 27 -57 13
-133 9 -224 -10 -27 -5 -75 -15 -105 -20 -30 -6 -76 -15 -102 -20 -27 -6 -69
-14 -95 -19 -27 -5 -66 -14 -88 -21 -22 -6 -65 -15 -95 -20 -30 -5 -77 -14
-105 -20 -54 -12 -116 -24 -192 -39 -27 -5 -66 -14 -88 -21 -22 -6 -65 -15
-95 -21 -56 -10 -105 -20 -195 -39 -27 -5 -72 -14 -100 -19 -27 -5 -68 -14
-90 -20 -40 -11 -109 -26 -195 -41 -25 -4 -73 -15 -107 -25 -36 -10 -68 -13
-77 -8 -37 21 -207 188 -221 216 -15 33 -303 317 -385 380 -25 20 -100 63
-168 96 -111 55 -163 73 -330 111 -53 12 -343 11 -397 -2z m3438 -943 c40 -8
101 -19 137 -25 64 -10 100 -17 210 -40 30 -6 82 -15 115 -20 33 -5 83 -14
110 -20 28 -6 73 -15 100 -21 28 -5 71 -14 98 -19 107 -22 145 -30 197 -40 30
-5 78 -15 105 -20 99 -21 151 -31 210 -40 33 -5 78 -14 100 -20 22 -7 65 -16
95 -21 57 -8 114 -19 215 -39 33 -6 78 -15 100 -20 22 -4 52 -12 66 -18 44
-18 170 -103 212 -144 22 -21 83 -59 136 -84 53 -26 114 -56 136 -67 46 -24
202 -157 289 -247 32 -34 75 -69 96 -80 20 -10 62 -42 93 -70 l55 -50 157
-472 c87 -260 164 -497 171 -526 17 -66 18 -118 2 -129 -7 -4 -87 -11 -178
-15 -587 -27 -744 -37 -920 -58 -207 -25 -248 -30 -315 -39 -38 -6 -101 -15
-140 -20 -38 -5 -97 -15 -130 -20 -33 -6 -87 -16 -120 -21 -59 -10 -127 -22
-215 -39 -25 -5 -72 -16 -105 -24 -33 -8 -87 -20 -120 -27 -33 -7 -71 -16 -85
-20 -14 -5 -50 -14 -80 -21 -30 -6 -66 -15 -80 -20 -36 -11 -233 -59 -293 -70
-29 -6 -79 -15 -112 -21 -81 -15 -593 -15 -670 -1 -33 7 -80 17 -105 23 -25 6
-67 15 -95 20 -27 5 -140 32 -250 60 -246 64 -268 69 -330 81 -27 5 -70 13
-95 19 -89 19 -156 31 -215 40 -33 6 -85 15 -115 21 -52 10 -111 19 -260 40
-394 55 -739 80 -1300 95 -129 3 -219 9 -227 16 -7 6 -13 21 -13 34 0 35 57
249 80 299 11 24 20 51 20 59 0 9 9 35 19 58 11 24 24 63 31 88 6 25 20 68 30
95 9 28 23 70 30 95 7 25 21 64 31 87 10 23 19 49 19 57 0 9 9 35 19 58 11 24
27 69 36 101 14 48 26 65 64 95 61 50 163 157 247 263 77 96 110 126 204 189
66 44 211 150 220 160 3 4 38 28 78 54 68 46 89 54 202 76 25 5 68 14 95 20
28 5 75 15 105 20 58 11 113 22 195 40 28 5 73 14 100 20 28 5 73 14 100 20
28 5 75 15 105 20 58 11 113 22 195 40 28 5 73 14 100 20 28 5 73 14 100 20
28 6 77 15 110 20 59 9 126 22 215 40 25 5 83 16 130 24 87 14 134 23 300 55
52 11 99 19 103 20 4 1 40 -6 80 -14z m-2273 -2563 c167 -17 406 -51 555 -81
28 -6 66 -13 85 -16 225 -39 521 -145 667 -238 54 -34 172 -158 197 -205 25
-48 40 -147 39 -262 -2 -286 -76 -594 -182 -748 -20 -29 -41 -61 -46 -70 -14
-23 -58 -86 -103 -148 -52 -73 -265 -275 -344 -327 -69 -47 -225 -129 -268
-142 -14 -4 -44 -16 -67 -26 -40 -18 -114 -40 -198 -59 -22 -5 -58 -14 -80
-20 -89 -25 -204 -33 -505 -33 -321 0 -503 13 -625 44 -72 19 -109 28 -180 45
-38 9 -81 22 -95 29 -14 7 -62 27 -106 44 -116 43 -214 113 -324 229 -129 136
-137 146 -181 237 -127 266 -182 552 -182 950 0 215 8 275 48 393 24 73 36 91
89 144 115 113 209 163 397 207 166 40 233 51 310 52 35 0 73 4 84 9 27 12
881 5 1015 -8z m5590 -1 c286 -31 397 -58 544 -132 79 -39 112 -63 164 -117
87 -92 100 -120 138 -302 19 -90 5 -558 -21 -685 -3 -16 -11 -57 -16 -90 -35
-200 -89 -347 -187 -510 -75 -124 -334 -341 -455 -381 -29 -9 -56 -20 -62 -24
-17 -12 -131 -45 -275 -79 -182 -43 -320 -54 -670 -54 -301 -1 -410 7 -505 33
-22 6 -58 15 -80 20 -89 20 -163 42 -220 67 -132 56 -253 118 -305 157 -30 23
-66 49 -80 58 -41 27 -211 196 -249 248 -20 27 -60 79 -89 117 -28 37 -61 87
-73 110 -11 23 -28 52 -39 65 -17 23 -86 218 -108 308 -36 149 -55 393 -38
510 17 119 41 170 119 250 39 41 90 86 112 100 135 86 418 187 645 231 289 56
479 83 682 97 59 4 110 11 114 15 11 11 841 1 954 -12z m-3161 -827 c48 -25
141 -113 141 -133 0 -6 18 -48 40 -95 22 -46 40 -87 40 -91 0 -9 181 -381 228
-470 67 -126 172 -295 182 -295 4 0 20 -19 36 -42 41 -62 142 -164 192 -193
23 -14 42 -30 42 -35 0 -9 192 -140 206 -140 4 0 21 -11 38 -23 81 -62 359
-169 516 -199 227 -44 321 -51 660 -51 301 0 374 4 595 33 152 20 206 23 217
12 9 -9 -74 -373 -152 -667 -10 -38 -24 -97 -31 -130 -7 -33 -21 -84 -31 -114
-10 -30 -18 -65 -18 -78 0 -43 -27 -80 -72 -97 -24 -10 -79 -32 -123 -51 -44
-18 -107 -43 -140 -56 -33 -12 -87 -35 -120 -49 -33 -15 -91 -39 -130 -54 -38
-15 -93 -38 -120 -52 -28 -13 -54 -24 -58 -24 -5 0 -27 -8 -50 -18 -23 -11
-69 -29 -102 -41 -33 -13 -73 -29 -90 -37 -28 -12 -195 -82 -375 -156 -41 -17
-89 -36 -105 -44 -17 -7 -66 -27 -110 -44 -44 -17 -98 -40 -120 -50 -22 -11
-101 -44 -175 -74 -74 -29 -151 -61 -170 -69 -148 -67 -250 -101 -325 -108
-44 -4 -120 -13 -170 -19 -49 -6 -124 -15 -165 -20 -41 -5 -113 -14 -160 -21
-107 -15 -368 -16 -480 0 -165 23 -377 47 -520 59 -61 6 -99 15 -135 34 -27
14 -99 44 -160 68 -60 23 -137 54 -170 70 -33 15 -109 46 -170 70 -60 23 -137
54 -170 70 -33 15 -94 40 -135 56 -41 15 -84 34 -95 41 -11 7 -27 13 -35 13
-9 0 -38 11 -66 24 -27 13 -71 32 -97 41 -26 10 -50 22 -53 26 -3 5 -13 9 -22
9 -9 1 -35 9 -57 20 -22 11 -44 19 -49 20 -5 0 -36 13 -70 29 -33 16 -92 41
-131 55 -38 15 -83 33 -98 41 -16 8 -33 15 -39 15 -6 0 -34 11 -62 24 -28 13
-94 41 -146 61 -52 20 -99 40 -105 44 -5 5 -59 27 -120 50 -179 70 -173 64
-205 211 -7 30 -20 84 -30 120 -10 36 -29 110 -41 165 -12 55 -25 111 -29 125
-5 14 -13 45 -18 70 -15 65 -18 77 -68 269 -40 157 -46 211 -26 211 16 -1 130
-21 172 -30 43 -10 99 -17 310 -42 52 -6 241 -11 420 -11 307 0 467 9 570 32
25 6 68 14 95 20 28 5 62 14 76 19 14 6 57 18 95 27 38 10 74 21 80 26 6 5 30
15 53 24 111 39 420 219 454 264 7 9 24 24 38 33 32 20 199 184 199 195 0 5
10 19 23 33 69 76 312 508 342 610 4 14 32 72 61 129 30 57 54 107 54 112 0
26 73 158 102 185 79 73 108 82 266 83 113 1 126 -1 171 -25z"/>
<path d="M5827 11877 c-248 -200 -540 -434 -647 -521 -107 -86 -303 -245 -435
-351 -262 -212 -308 -252 -303 -264 2 -5 29 -36 61 -70 l57 -62 43 33 c37 29
700 563 1518 1221 l286 230 -51 73 c-28 41 -57 74 -64 74 -7 0 -216 -163 -465
-363z"/>
<path d="M5735 12184 c-22 -19 -54 -43 -72 -52 -17 -9 -91 -64 -165 -122 -73
-58 -198 -157 -278 -220 -80 -62 -174 -137 -210 -165 -36 -28 -159 -125 -275
-215 -115 -91 -221 -176 -235 -190 -14 -14 -53 -47 -87 -73 -35 -27 -63 -54
-63 -60 1 -7 23 -40 51 -75 l50 -63 107 83 c171 132 738 576 969 760 117 92
217 168 222 168 6 0 11 4 11 9 0 5 31 33 69 62 l70 53 -37 50 c-52 72 -65 86
-77 86 -5 -1 -28 -17 -50 -36z"/>
<path d="M5240 12141 c-14 -9 -61 -44 -105 -79 -44 -35 -144 -114 -223 -175
-79 -62 -168 -133 -198 -158 -30 -26 -95 -78 -144 -115 -49 -38 -88 -74 -87
-79 1 -6 25 -31 53 -57 l51 -48 199 156 c109 86 286 223 392 306 105 82 195
155 199 161 3 5 -5 19 -18 29 -13 11 -33 27 -44 36 -48 40 -49 40 -75 23z"/>
<path d="M10990 12302 c-23 -15 -164 -128 -1060 -847 -184 -148 -358 -289
-385 -314 -28 -25 -72 -61 -98 -78 -26 -18 -47 -39 -47 -47 0 -9 25 -51 55
-95 l54 -80 48 38 c26 21 111 90 188 152 78 63 415 335 750 605 336 270 616
498 623 507 12 14 7 28 -28 96 -45 86 -56 93 -100 63z"/>
<path d="M10508 12227 c-32 -23 -75 -54 -95 -68 -21 -15 -182 -140 -358 -278
-176 -139 -403 -317 -505 -395 -102 -79 -191 -151 -199 -160 -12 -14 -10 -21
13 -54 15 -20 37 -52 49 -69 12 -18 25 -32 29 -30 10 3 1124 878 1173 920 l40
35 -17 29 c-10 15 -28 47 -40 71 -12 23 -24 42 -27 42 -3 0 -32 -20 -63 -43z"/>
<path d="M9907 12094 c-88 -61 -571 -442 -596 -468 l-24 -25 53 -70 c30 -40
58 -67 64 -64 22 13 71 48 76 54 3 4 136 109 295 234 160 125 292 229 293 231
5 3 -98 138 -107 141 -3 1 -28 -14 -54 -33z"/>
<path d="M7575 9860 c-3 -5 -19 -10 -34 -10 -65 0 -172 -83 -226 -177 -35 -59
-35 -142 1 -208 48 -92 151 -175 249 -202 22 -6 72 -20 110 -31 81 -23 135
-36 220 -52 33 -6 74 -15 91 -21 17 -5 47 -9 67 -9 48 0 84 -17 91 -44 10 -36
6 -420 -4 -436 -8 -13 -74 -16 -457 -20 l-448 -5 -3 -97 -3 -98 1031 0 1030 0
0 100 0 100 -454 0 c-400 0 -456 2 -470 16 -14 13 -16 48 -16 224 0 252 -1
251 106 262 38 3 92 11 119 17 28 6 73 15 100 20 205 37 393 114 471 195 42
43 87 140 86 186 -1 50 -44 143 -86 185 -49 50 -128 95 -165 95 -15 0 -32 5
-37 10 -7 7 -104 9 -295 5 -355 -7 -446 -7 -791 0 -187 4 -278 3 -283 -5z"/>
</g>
</svg>
